<?xml version="1.0" encoding="UTF-8"?>
<svg id="Layer_1" data-name="Layer 1" xmlns="http://www.w3.org/2000/svg" viewBox="0 0 93.67 36.28">
  <defs>
    <style>
      .cls-1, .cls-2 {
        fill: #fff;
      }

      .cls-2, .cls-3 {
        fill-rule: evenodd;
      }

      .cls-3, .cls-4 {
        fill: #231f20;
      }
    </style>
  </defs>
  <g>
    <path class="cls-2" d="m4.6,3.08C12.02-.04,19.37-.11,26.81,3.08c1.82,10.74-2.26,18.72-10.71,24.67C7.91,21.94,3.02,14.27,4.6,3.08h0Zm-.61-.59c7.82-3.27,15.57-3.34,23.41,0,1.93,11.34-2.38,19.76-11.29,26.02C7.47,22.38,2.32,14.29,3.99,2.48h0Z"/>
    <path class="cls-3" d="m4.6,3.08C12.02-.04,19.37-.11,26.8,3.08c1.82,10.74-2.26,18.72-10.71,24.67C7.9,21.94,3.02,14.28,4.6,3.08h0Z"/>
    <path class="cls-1" d="m16.09,30.35c4.89.03,8.42-1.58,8.42-1.58,0,0-.23-.32-.63-1.21-.78-1.74,1.77-2.21,1.77-2.21,0,0-.84-.72-.88-1.2-.21-2.49,6.98-2.83,6.98-2.83l-1.55,1.74s-.05.24.16.07c.21-.17.93-.99.93-.99l.72-.19v.24l-1.29,1.38,1.27.86.17.33-1.82.23.12.13h1.35l.3.41-1.35.27s.34.66,0,1.19l-.34.53s-.05.46.23.2c.28-.26.37-.64.37-.64,0,0,.24-.41.33-.03.11.46-.07.7-.24.87-.17.17-.38.3-.21.62,0,0,.79,1.13-.1,1.77,0,0-5.84,4.86-14.73,4.7h0c-8.89.16-14.73-4.7-14.73-4.7-.89-.64-.1-1.77-.1-1.77.17-.32-.04-.45-.21-.62-.17-.17-.35-.41-.24-.87.09-.39.33.03.33.03,0,0,.09.37.37.64.28.27.23-.2.23-.2l-.34-.53c-.34-.53,0-1.19,0-1.19l-1.35-.27.3-.41h1.35l.12-.13-1.82-.23.17-.33,1.27-.86-1.29-1.38v-.24l.72.19s.72.82.93.99c.21.17.16-.07.16-.07l-1.55-1.74s7.23.28,6.98,2.83c-.05.48-.88,1.2-.88,1.2,0,0,2.6.47,1.78,2.21-.42.88-.63,1.21-.63,1.21,0,0,3.54,1.61,8.42,1.58h0Z"/>
    <path class="cls-4" d="m16.09,30.91c7.57.18,12.2-3.59,12.2-3.59.42-.42-.02-.86-.68-.62-.21.08-.54.24-1.85.92-1.31.68-2.84-1.37,1.38-2.13.78-.14,1.95-.87,1.35-1.37-.48-.4-1.6.13-1.8.18-1.67.44-1.28-.49-1.13-.68.92-1.21,4.98-1.72,4.98-1.72l-1.07,1.25,1.33,1.17-.89.15s-.94-1.59-2.11-1.29c-.45.12-1.19.47-1.57.59-.38.12-.52.11-.52.11,0,0-.08.07,0,.2.32.47,2.76-1.24,3.33.13.15.37.45.75.89,1.29.68.82.47,1.17.31,1.38-.16.21-.31.26-.47-.04-.16-.31-.41-.72-.71-.91-.29-.19-.92-.45-1.36-.31-.44.15-2.94,1.43-2.94,1.43,0,0-.06.46.73.12.6-.26,1.98-1.22,2.63-1.13.38.05.52.24.89.73.38.49,1.36,2.33,1.36,2.33,0,0,.38.56-.07.89,0,0-5.6,4.62-14.24,4.5h0c-8.63.12-14.24-4.5-14.24-4.5-.45-.33-.07-.89-.07-.89,0,0,.99-1.83,1.36-2.33.38-.49.51-.68.89-.73.65-.09,2.04.87,2.63,1.13.79.34.73-.12.73-.12,0,0-2.5-1.28-2.94-1.43-.44-.15-1.07.12-1.36.31-.29.19-.55.6-.71.91-.16.31-.31.25-.47.04-.16-.2-.36-.55.31-1.38.45-.54.74-.92.89-1.29.57-1.37,3.01.34,3.33-.13.09-.13,0-.2,0-.2,0,0-.14,0-.52-.11-.38-.12-1.11-.47-1.57-.59-1.17-.3-2.11,1.29-2.11,1.29l-.89-.15,1.33-1.17-1.07-1.25s4.68.57,5.07,1.68c.08.23.45,1.16-1.23.72-.19-.05-1.22-.67-1.8-.18-.6.5.58,1.26,1.35,1.44.77.18,1.74.5,2.1.63,1.3.49.57,2.09-.75,1.4-1.31-.68-1.64-.84-1.85-.92-.66-.24-1.07.21-.65.63,0,0,4.63,3.76,12.2,3.59h0Z"/>
    <path class="cls-2" d="m5.12,3.58c7.05-2.97,14.09-3.04,21.17,0,1.73,10.2-2.15,17.81-10.22,23.52C8.24,21.52,3.58,14.22,5.12,3.58h0Z"/>
    <path class="cls-3" d="m7.63,5.93l.44-.14-.59-1.08.16,1.22h0Zm-.37,1.33l-.28-2.92.68-.23,1.51,2.54-.54.16-.37-.63-.59.19.1.73-.51.16h0Zm2.64-.8l-1.22-2.68.56-.12.89,2.15-.09-2.33.54-.12v2.94l-.68.16h0Zm1.89-1.84c.05.47.14.77.19.87.07.11.19.16.33.16.12-.04.24-.09.26-.23.05-.11.05-.42-.02-.89-.05-.47-.12-.77-.19-.87-.07-.12-.17-.18-.31-.16-.14.02-.25.1-.28.23-.03.11-.03.44.02.89h0Zm-.52.07c-.04-.3-.07-.56-.07-.73s.05-.33.1-.42c.05-.14.14-.26.25-.32.12-.07.26-.12.44-.14.19-.03.33,0,.47.02.11.05.23.14.33.25.07.09.14.23.17.4.05.17.11.42.14.72.04.3.04.54.04.72,0,.19-.04.35-.07.44-.07.14-.17.25-.26.32-.12.07-.26.1-.45.14-.17.02-.33,0-.45-.03-.12-.03-.23-.12-.31-.25-.07-.07-.14-.21-.18-.37-.05-.19-.11-.44-.14-.73h0Zm2.47,1.17l-.1-2.89h.56l.8,1.98-.09-2.01.51-.02.1,2.87-.54.04-.82-1.99.09,2.01-.51.02h0Zm2.8-.44l.25.02c.1,0,.19,0,.24-.02.05,0,.09-.04.12-.09.05-.07.1-.18.12-.3.04-.12.05-.33.05-.61.02-.28.02-.49,0-.59-.02-.14-.07-.25-.14-.32-.02-.04-.07-.07-.11-.07-.05-.02-.14-.04-.23-.04l-.25-.02-.07,2.03h0Zm-.52.42l.1-2.87.86.02c.18.02.31.03.4.07.1.02.19.09.26.16.09.09.16.23.19.37.04.16.07.4.05.72-.02.4-.05.7-.09.86-.02.16-.09.32-.16.42-.07.1-.16.19-.28.24-.11.03-.33.05-.61.03l-.73-.02h0Zm2.99-.91l.44.07-.03-1.22-.4,1.15h0Zm-.95,1.02l1.08-2.73.7.11.21,2.94-.58-.09-.03-.73-.59-.11-.26.7-.52-.09h0Zm2.29.35l.73-2.76.51.14-.59,2.31.93.24-.12.47-1.45-.4h0Zm1.8.45l1.03-2.69,1.37.54-.16.44-.89-.33-.23.61.8.31-.16.44-.82-.33-.28.75.91.35-.17.45-1.4-.54h0Z"/>
    <path class="cls-1" d="m.48,30.74c-.1.12-.08.3.04.4.14.12,3.5,2.88,9.03,4.32,5.1,1.33,13.07,1.7,22.01-4.06.13-.09.17-.26.09-.4-.09-.13-.26-.17-.4-.09-8.76,5.64-16.54,5.29-21.53,3.99-5.42-1.4-8.8-4.18-8.84-4.21-.12-.1-.3-.08-.4.04Z"/>
    <path class="cls-1" d="m4.81,28.76l.34.2-.44.75h0c.07-.04.14-.08.22-.12l.68-.36.43.25-.93.42-.04,1.28-.4-.24.05-.95-.23.1-.33.55-.34-.2,1-1.69Z"/>
    <path class="cls-1" d="m5.93,31.64c-.47-.23-.56-.76-.32-1.26.25-.53.75-.78,1.22-.55.49.24.57.77.33,1.26-.28.58-.76.78-1.23.56h0Zm.17-.31c.24.12.51-.07.67-.42.15-.32.15-.66-.1-.78-.25-.12-.52.08-.68.41-.16.33-.14.66.1.78h0Z"/>
    <path class="cls-1" d="m8.2,30.46l-.26.71.62.23.26-.71.38.14-.68,1.84-.38-.14.28-.77-.62-.23-.28.77-.38-.14.68-1.84.38.14Z"/>
    <path class="cls-1" d="m9.93,31.04l-.56,1.88-.38-.12.56-1.88.38.11Z"/>
    <path class="cls-1" d="m10.34,32.66l-.24.46-.4-.1.98-1.79.51.12.09,2.04-.42-.1-.02-.52-.5-.12Zm.51-.22v-.43c-.01-.12-.01-.27,0-.39h0c-.05.11-.11.24-.16.35l-.2.38.38.09Z"/>
    <path class="cls-1" d="m12.29,33.58l.24-1.95.46.06.28.76c.08.22.15.47.2.7h0c0-.26.03-.52.07-.82l.07-.57.37.05-.24,1.95-.42-.05-.28-.8c-.08-.22-.16-.49-.22-.73h-.01c-.02.26-.05.54-.09.85l-.07.59-.37-.05Z"/>
    <path class="cls-1" d="m15.74,33.78c-.13.04-.36.09-.6.08-.32-.01-.55-.12-.71-.29-.15-.18-.23-.44-.22-.73.03-.65.48-1.01,1.06-.98.23.01.4.07.49.12l-.1.35c-.1-.05-.21-.09-.41-.1-.33-.01-.6.18-.62.61-.02.41.2.65.53.67.09,0,.16,0,.2-.02l.02-.41h-.27s.02-.36.02-.36l.66.03-.05,1.03Z"/>
    <path class="cls-1" d="m16.61,33.35l-.11.51h-.42s.48-1.97.48-1.97l.52-.02.62,1.94h-.43s-.15-.48-.15-.48l-.51.02Zm.44-.35l-.12-.41c-.03-.12-.07-.26-.1-.38h0c-.02.12-.04.27-.07.38l-.09.42h.39Z"/>
    <path class="cls-1" d="m18.74,32.12l-.48.06-.05-.37,1.35-.17.05.37-.48.06.2,1.58-.4.05-.2-1.58Z"/>
    <path class="cls-1" d="m20.29,32.99l-.03.52-.41.08.17-2.03.52-.1.91,1.83-.42.08-.23-.47-.5.1Zm.38-.41l-.19-.39c-.05-.11-.11-.25-.16-.36h0c0,.12,0,.27,0,.39l-.03.43.39-.07Z"/>
    <path class="cls-1" d="m21.71,31.18l.48,1.9-.39.1-.48-1.9.39-.1Z"/>
    <path class="cls-1" d="m22.07,31.1l.38-.12.26.83h0c.02-.09.03-.16.05-.24l.19-.74.47-.15-.31.97.92.89-.44.14-.67-.68-.08.24.19.61-.38.12-.58-1.87Z"/>
    <path class="cls-1" d="m24.57,31.79l.07.51-.39.16-.23-2.02.49-.2,1.25,1.61-.4.16-.32-.42-.47.19Zm.29-.48l-.26-.34c-.07-.1-.16-.22-.22-.32h0c.02.12.05.27.07.38l.06.43.36-.15Z"/>
    <path class="cls-1" d="m25.24,29.93l.35-.18.39.78h0c0-.09,0-.17.01-.25l.06-.76.44-.22-.15,1.01,1.06.73-.42.21-.77-.56-.04.25.29.57-.35.18-.88-1.75Z"/>
    <path class="cls-1" d="m27.82,30.2l.16.49-.35.22-.58-1.95.44-.28,1.51,1.37-.37.23-.38-.36-.43.27Zm.21-.52l-.31-.3c-.09-.08-.19-.19-.27-.28h0c.04.12.1.26.13.37l.13.41.33-.21Z"/>
    <path class="cls-4" d="m20.55,16.42c.12,1.67-.59,2.97-1.56,3.58-.16.1-.39.13-.54.25-.24.18-.39.62-.45,1.05-.06.37-.18,1.06-.12,1.36.05.25.38.31.42.62-1.1-.2-1.11.74-1.75,1.02,0-.36.31-.4.36-.71-.36,0-.61.38-1.02.43.42-.58,1.17-.82,1.75-1.24-.17-1.96-1.34-3.1-2.44-4.23-1.13-1.16-2.09-2.36-2.2-4.45-.03-.57.04-1.12-.24-1.45-.44-.52-1.26-.68-1.69-1.14-.38-.41-.56-1.07-.99-1.42-.87-.7-2.16-.85-3.31-1.24,1.34-.32,2.61.71,3.98.81.46.03.94-.09,1.42-.06,1.16.08,1.9.88,2.41,1.48,2.78.85,5.77,2.13,5.99,5.34Z"/>
    <path class="cls-1" d="m11.42,10.03c-.13.42.24.74.66.59,0-.42-.26-.69-.66-.59Z"/>
    <path class="cls-4" d="m15.94,20.62c-.06-.27-.25-.42-.21-.8.25.19.92.72.9,1.08-.01.28-.44.48-.54.8-.16.53.04.79.21,1.24-.78-.06-.96.5-1.42.77-.09-.4.47-.4.57-.71-.3-.37-.86.06-1.17.15.1-.42.81-.48,1.23-.68.25-.55.58-1.15.42-1.86Z"/>
    <path class="cls-4" d="m19.85,7.87c-1.9,0-2.63,1.27-2.63,2.1,0,.93.63,1.59,1.47,1.59.62,0,1.21-.41,1.21-1.09,0-.55-.33-.75-.64-.82-.26-.06-.47.05-.59.17-.12.12-.34.13-.34-.09,0-.42.37-1.12,1.56-1.12.29,0,1.26-.08,2.16.67.64.53,1.1,1.29,1.36,2.27-.4-.33-.91-.52-1.52-.48-.71.05-1.49.69-1.49,1.42,0,.69.49,1.4,1.27,1.4.52,0,.85-.4.85-.77s-.29-.7-.67-.7c-.16,0-.38.07-.5.19-.14.14-.36.02-.36-.13,0-.61.51-.99,1.05-.99,1.25,0,1.51.83,1.58,1.19,0,.02.07.48.07,1.22,0,.71-.1,1.4-.28,2.09-.22-.6-.74-.93-1.33-.93s-.97.44-.97.94c0,.36.21.79.74.79.24,0,.46-.18.51-.37.07-.25-.11-.54-.36-.54-.18,0-.27.07-.33.13-.06.06-.18.02-.18-.06,0-.23.15-.53.65-.53.99,0,1.11,1.13.95,1.6-.75,2.03-2.09,3.85-3.27,5.2-1.65,1.9-3.32,3.12-3.76,3.47-.45-.29-2.09-1.54-3.65-3.21-2.11-2.26-3.27-4.17-3.27-5.36,0-.66.43-1.29,1.37-1.29.33,0,.69.29.69.53,0,.09-.07.1-.14.03-.1-.1-.29-.12-.46-.04-.3.15-.39.4-.36.69.06.51.46.74.87.74.67,0,1.1-.67.96-1.41-.14-.73-.77-1.22-1.59-1.22-1.07,0-1.93.69-1.93,1.97,0,1.72,2,4.13,3.63,5.82,2.09,2.17,3.9,3.41,3.9,3.41,0,0,2.15-1.55,4.11-3.79,1.15-1.32,2.07-2.65,2.73-3.94.83-1.63,1.36-3.21,1.36-4.7,0-5.67-3.52-6.03-4.44-6.03Z"/>
  </g>
  <g>
    <g>
      <path class="cls-1" d="m40.08,17.02v-.21c.29-.06.49-.12.61-.2.12-.08.18-.19.18-.34,0-.12-.05-.3-.14-.54l-.41-1.09h-2.52l-.35.94c-.09.24-.13.43-.13.58,0,.31.24.53.71.66v.21h-2.28v-.21c.28-.05.52-.19.72-.43.2-.24.41-.63.61-1.17l2.03-5.44h.97l2.15,5.66c.2.5.39.85.58,1.05.19.2.44.31.74.33v.21h-3.47Zm-2.05-2.89h2.11l-1.08-2.87-1.03,2.87Z"/>
      <path class="cls-1" d="m49.49,9.95v.21c-.29.06-.52.18-.7.36-.18.18-.35.49-.53.95l-2.18,5.74h-.23l-2.23-5.67c-.2-.52-.39-.86-.55-1.04-.16-.18-.39-.29-.7-.34v-.21h3.22v.21c-.39.07-.59.24-.59.51,0,.13.04.29.12.5l1.41,3.59,1.26-3.4c.07-.21.11-.39.11-.53,0-.37-.25-.6-.76-.68v-.21h2.34Z"/>
      <path class="cls-1" d="m57.13,13.49c0,1.08-.36,1.97-1.09,2.67-.72.7-1.65,1.04-2.77,1.04s-2.04-.35-2.76-1.04c-.72-.7-1.08-1.59-1.08-2.67s.36-1.97,1.08-2.67c.72-.7,1.64-1.05,2.76-1.05s2.05.35,2.77,1.05c.72.7,1.09,1.59,1.09,2.67Zm-1.69.05c0-1.1-.18-1.93-.55-2.51s-.91-.86-1.61-.86-1.23.29-1.6.86c-.37.57-.55,1.41-.55,2.52,0,1.03.19,1.83.55,2.4.37.57.9.86,1.59.86s1.21-.28,1.59-.85c.38-.57.57-1.37.57-2.41Z"/>
      <path class="cls-1" d="m63.14,10.16v-.21h2.38v.21c-.68.04-1.03.42-1.03,1.16v5.79h-.23l-5.09-5.73v4.32c0,.38.07.64.21.79.14.15.42.26.83.33v.21h-2.44v-.21c.33-.05.57-.16.71-.34.14-.17.22-.45.22-.82v-4.8c-.28-.28-.47-.46-.57-.54-.1-.08-.23-.13-.37-.16v-.21h2.12l4.13,4.74v-3.18c0-.47-.06-.79-.18-.97-.12-.18-.36-.31-.7-.38Z"/>
      <path class="cls-1" d="m66.06,17.02v-.21c.37-.1.62-.22.73-.34.11-.12.17-.39.17-.81v-4.51c0-.32-.06-.54-.17-.67-.11-.13-.36-.24-.73-.34v-.21h3.62c1.31,0,2.35.33,3.11,1,.76.66,1.14,1.54,1.14,2.63s-.34,1.88-1.02,2.51c-.68.63-1.6.94-2.76.94h-4.09Zm3.38-6.67h-.92v5.44c0,.3.09.52.27.64.18.13.47.19.89.19.82,0,1.45-.27,1.9-.81.45-.54.67-1.31.67-2.3s-.25-1.74-.74-2.31c-.49-.56-1.18-.85-2.07-.85Z"/>
      <path class="cls-1" d="m78.01,17.02v-.21c.29-.06.49-.12.61-.2.12-.08.18-.19.18-.34,0-.12-.05-.3-.14-.54l-.41-1.09h-2.52l-.35.94c-.09.24-.13.43-.13.58,0,.31.24.53.71.66v.21h-2.28v-.21c.28-.05.52-.19.72-.43.2-.24.41-.63.61-1.17l2.03-5.44h.97l2.15,5.66c.2.5.39.85.58,1.05s.44.31.74.33v.21h-3.46Zm-2.05-2.89h2.11l-1.08-2.87-1.03,2.87Z"/>
      <path class="cls-1" d="m85.36,9.95v.21c-.38.09-.62.2-.73.32-.11.12-.17.33-.17.61v4.76c0,.29.08.5.23.6.16.11.45.16.88.16s.8-.1,1.05-.3c.25-.2.51-.58.78-1.14h.21l-.21,1.84h-5.4v-.21c.38-.09.62-.21.72-.34.11-.13.16-.4.16-.81v-4.52c0-.32-.06-.54-.17-.67-.12-.13-.35-.23-.71-.32v-.21h3.34Z"/>
      <path class="cls-1" d="m92.83,12.39h.23v2.19h-.23c-.08-.6-.41-.9-.98-.9h-1.25v2.08c0,.32.07.54.22.67.15.13.39.19.75.19h.41c.69,0,1.19-.44,1.48-1.32h.21l-.13,1.72h-5.38v-.21c.36-.07.59-.18.71-.32.12-.14.18-.41.18-.81v-4.55c0-.33-.06-.56-.18-.69-.12-.13-.36-.23-.7-.29v-.21h5.3v1.57h-.21c-.12-.46-.26-.77-.44-.93-.18-.16-.46-.24-.84-.24h-1.37v2.92h1.25c.28,0,.5-.07.65-.2.15-.13.26-.36.33-.68Z"/>
    </g>
    <g>
      <path class="cls-1" d="m49.55,20.52v1.72h-.17c-.14-.53-.36-.93-.66-1.18-.3-.25-.71-.38-1.21-.38-.66,0-1.18.24-1.56.71-.38.47-.58,1.1-.58,1.89,0,.86.2,1.56.61,2.08.4.53.94.79,1.59.79.91,0,1.58-.42,2.01-1.27l.15.14c-.19.46-.51.82-.94,1.09-.43.27-.92.4-1.47.4-.52,0-1-.12-1.45-.37-.44-.25-.79-.58-1.03-1.02-.24-.43-.36-.93-.36-1.49,0-.92.28-1.68.85-2.28.56-.6,1.28-.9,2.13-.9.29,0,.65.05,1.1.15.25.06.42.09.52.09.15,0,.25-.06.31-.18h.16Z"/>
      <path class="cls-1" d="m50.66,23.46c0-.86.3-1.57.89-2.14.59-.57,1.33-.86,2.21-.86s1.58.29,2.17.87c.59.58.89,1.29.89,2.13s-.3,1.58-.9,2.17c-.6.59-1.33.89-2.19.89s-1.59-.3-2.18-.89c-.59-.59-.89-1.31-.89-2.17Zm.89,0c0,.84.2,1.52.6,2.04.4.52.92.78,1.57.78s1.19-.27,1.6-.8c.41-.53.61-1.19.61-1.99,0-.85-.2-1.54-.6-2.05-.4-.52-.92-.77-1.55-.77-.68,0-1.22.25-1.62.76-.41.51-.61,1.18-.61,2.03Z"/>
      <path class="cls-1" d="m62.21,25.11h.17l-.35,1.26h-4.18v-.17c.24,0,.4-.07.5-.22.1-.15.15-.4.15-.74v-3.63c0-.31-.05-.53-.14-.65-.09-.12-.26-.18-.51-.18v-.17h2.07v.17c-.23,0-.39.07-.49.21-.1.14-.15.37-.15.7v3.86c0,.21.04.36.14.44.09.08.26.12.52.12h1.15c.35,0,.6-.06.74-.18.14-.12.27-.39.4-.79Z"/>
      <path class="cls-1" d="m67.51,25.11h.17l-.35,1.26h-4.18v-.17c.24,0,.4-.07.5-.22.1-.15.15-.4.15-.74v-3.63c0-.31-.05-.53-.14-.65-.09-.12-.26-.18-.51-.18v-.17h2.07v.17c-.23,0-.39.07-.49.21-.1.14-.15.37-.15.7v3.86c0,.21.05.36.14.44.09.08.26.12.52.12h1.15c.35,0,.6-.06.74-.18.14-.12.27-.39.4-.79Z"/>
      <path class="cls-1" d="m72.15,22.79h.17v1.4h-.17c-.06-.25-.14-.4-.23-.46-.09-.06-.28-.09-.58-.09h-1.43v2.07c0,.14.03.25.1.3.06.06.17.09.33.09h1.01c.36,0,.61-.02.75-.06.14-.04.25-.11.35-.22.1-.11.2-.28.3-.52h.17l-.27,1.08h-4.16v-.17c.26,0,.43-.07.52-.2.09-.13.13-.37.13-.71v-3.61c0-.35-.05-.59-.14-.72-.09-.13-.26-.2-.52-.2v-.17h4.16v.96h-.11c-.06-.28-.14-.46-.25-.55-.11-.09-.35-.14-.72-.14h-1.66v2.47h1.61c.22,0,.37-.04.45-.12.08-.08.14-.23.17-.45Z"/>
      <path class="cls-1" d="m79.73,23.87v.17c-.26,0-.44.06-.55.17-.11.12-.16.32-.16.6v1.55c-.13.04-.39.07-.76.1-.37.03-.65.04-.86.04-1.07,0-1.9-.26-2.49-.79-.6-.52-.89-1.22-.89-2.08,0-.6.13-1.14.39-1.62.26-.48.62-.86,1.09-1.15.47-.28.96-.42,1.49-.42.31,0,.66.06,1.03.17.24.07.42.1.54.1.16,0,.27-.06.32-.19h.18v1.7h-.16c-.07-.47-.28-.85-.64-1.13-.36-.28-.79-.43-1.27-.43-.61,0-1.11.24-1.5.73-.39.49-.59,1.12-.59,1.89,0,.85.23,1.55.68,2.11.45.56,1.02.84,1.7.84.65,0,.97-.21.97-.62v-.63c0-.35-.05-.6-.14-.74-.09-.14-.26-.21-.49-.21h-.22v-.17h2.34Z"/>
      <path class="cls-1" d="m84.16,22.79h.17v1.4h-.17c-.06-.25-.14-.4-.23-.46-.09-.06-.28-.09-.58-.09h-1.43v2.07c0,.14.03.25.1.3.06.06.17.09.33.09h1.01c.36,0,.61-.02.75-.06.14-.04.25-.11.35-.22.1-.11.2-.28.3-.52h.17l-.27,1.08h-4.16v-.17c.26,0,.43-.07.52-.2.09-.13.13-.37.13-.71v-3.61c0-.35-.05-.59-.14-.72-.09-.13-.26-.2-.52-.2v-.17h4.16v.96h-.11c-.06-.28-.14-.46-.25-.55-.11-.09-.35-.14-.72-.14h-1.66v2.47h1.61c.22,0,.37-.04.45-.12.08-.08.14-.23.17-.45Z"/>
    </g>
  </g>
</svg>